<?xml version="1.0" encoding="utf-8"?>
<!-- Generator: Adobe Illustrator 16.0.0, SVG Export Plug-In . SVG Version: 6.00 Build 0)  -->
<!DOCTYPE svg PUBLIC "-//W3C//DTD SVG 1.1//EN" "http://www.w3.org/Graphics/SVG/1.1/DTD/svg11.dtd">
<svg version="1.1" id="Слой_1" xmlns="http://www.w3.org/2000/svg" xmlns:xlink="http://www.w3.org/1999/xlink" x="0px" y="0px"
	 width="512px" height="512px" viewBox="0 0 512 512" enable-background="new 0 0 512 512" xml:space="preserve">
<path id="V_kontakte_1_" fill="#FFFFFF" d="M280.8,402.065c12.968,0,18.297-8.644,18.123-19.469
	c-0.656-40.845,15.233-62.83,43.938-34.189c31.75,31.72,38.313,53.658,76.875,53.658c14.637,0,54.028,0,68.248,0
	c53.702,0,5.844-53.813-31.984-88.875c-35.971-33.346-37.672-34.145-6.688-74.26c38.453-49.813,88.734-113.999,44.252-113.999
	c-8.704,0-2.485,0-84.924,0c-16.483,0-17.688,9.606-23.528,23.438c-21.22,49.953-61.562,114.735-76.892,104.843
	c-16.047-10.344-8.705-45.437-7.469-106.231c0.33-16.063,0.233-27.109-24.328-32.798c-67.124-15.563-125.296,15.03-101.532,19.438
	c33.5,6.251,30.283,72.845,22.484,104.109c-13.608,54.443-64.765-43.093-86.091-91.688c-5.143-11.688-6.704-21.107-25.079-21.107
	c-10.062,0-54.501,0-69.438,0c-13.376,0-19.937,6.125-15.264,18.547c4.67,12.403,58.405,132.429,121.937,200.896
	C182.236,407.752,240.359,402.065,280.8,402.065z"/>
</svg>
